# xmcd CD database file
#
# Track frame offsets:
#	150
#	16746
#	37163
#	57796
#	74975
#	90760
#	109686
#	130110
#	145236
#	160742
#	171346
#	186393
#	203679
#	218360
#
# Disc length: 3145 seconds
#
# Revision: 2
# Processed by: cddbd v1.5.2PL0 Copyright (c) Steve Scherf et al.
# Submitted via: CDex 1.51
#
DISCID=c00c470e
DTITLE=La Mississippi - Amor y Paz
DYEAR=2006
DGENRE=Blues
TTITLE0=Amor y Paz
TTITLE1=Dame dame
TTITLE2=Denuevodevueltalomismo
TTITLE3=Demasiado
TTITLE4=Mi alma nocturna
TTITLE5=La balada de Jimmy Gerli
TTITLE6=El sabio
TTITLE7=Diario de un Crimen
TTITLE8=Plentzia
TTITLE9=Asi es la vida
TTITLE10=Perdido por perdido
TTITLE11=La vuelta
TTITLE12=Barrio duro
TTITLE13=Panza Arriba
EXTD=YEAR: 2006
EXTT0=
EXTT1=
EXTT2=
EXTT3=
EXTT4=
EXTT5=
EXTT6=
EXTT7=
EXTT8=
EXTT9=
EXTT10=
EXTT11=
EXTT12=
EXTT13=
PLAYORDER=
